# xmcd
#
# Track frame offsets:
#	150
#	16510
#	35785
#	49960
#	64510
#	79510
#	92335
#	108085
#	124435
#	136960
#	152410
#	167935
#	186085
#	201385
#
# Disc length: 2851
#
# Revision: 2
# Processed by: cddbd v1.5.2PL0 Copyright (c) Steve Scherf et al.
# Submitted via: kJams Pro (development) 1.0patch49.26
#
DISCID=b10b210e
DTITLE=Various Artist - Billy Holiday and Others (LS16)
DYEAR=2007
DGENRE=Karaoke
TTITLE0=Billy Holiday - Good Morning Heartache
TTITLE1=Billy Holiday - God Bless The Child
TTITLE2=Billy Holiday - Them There Eyes
TTITLE3=Billy Holiday - Strange Fruit
TTITLE4=Billy Holiday - Crazy He Calls Me
TTITLE5=Billy Holiday - My Man
TTITLE6=Billy Holiday - Don't Explain
TTITLE7=Billy Holiday - You've Changed
TTITLE8=Dinah Washington - What A Difference A Day Makes
TTITLE9=Lavern Baker - Tweedle Dee
TTITLE10=Sarah Vaughn - It Might As Well Be Spring
TTITLE11=Sara Vaughn - Moonlight In Vermont
TTITLE12=Sarah Vaughn - Misty
TTITLE13=Natalie Cole - Orange Colour Sky
EXTD=
EXTT0=
EXTT1=
EXTT2=
EXTT3=
EXTT4=
EXTT5=
EXTT6=
EXTT7=
EXTT8=
EXTT9=
EXTT10=
EXTT11=
EXTT12=
EXTT13=
PLAYORDER=
